<svg width="123" height="141" viewBox="0 0 123 141" fill="none" xmlns="http://www.w3.org/2000/svg">
<path d="M0.0267071 67.9929C0.359598 51.7581 0.52609 43.6408 5.98299 36.692C6.97902 35.4236 8.44044 33.9167 9.66525 32.8948C16.376 27.2959 25.2361 27.2959 42.9562 27.2959C49.287 27.2959 52.4525 27.2959 55.4704 26.4773C56.0968 26.3072 56.7171 26.1111 57.3294 25.8894C60.277 24.8225 62.9198 22.9862 68.2053 19.3135C89.0608 4.82375 99.4886 -2.4211 108.241 0.7262C109.919 1.32959 111.543 2.20062 112.994 3.27487C120.559 8.87804 121.135 21.9145 122.284 47.9874C122.71 57.6417 123 65.9043 123 70.5C123 75.0957 122.71 83.3584 122.284 93.0125C121.135 119.085 120.559 132.122 112.994 137.725C111.543 138.8 109.919 139.67 108.241 140.274C99.4886 143.421 89.0608 136.176 68.2053 121.687C62.9198 118.014 60.277 116.178 57.3294 115.111C56.7171 114.889 56.0968 114.693 55.4704 114.523C52.4525 113.704 49.287 113.704 42.9562 113.704C25.2361 113.704 16.376 113.704 9.66525 108.106C8.44044 107.083 6.97902 105.576 5.98299 104.308C0.52609 97.3588 0.359598 89.2416 0.0267071 73.0072C0.00913571 72.155 0 71.3178 0 70.5C0 69.6822 0.00913571 68.845 0.0267071 67.9929Z" fill="#EF5DA8" fill-opacity="0.9"/>
</svg>
