<svg width="126" height="114" viewBox="0 0 126 114" fill="none" xmlns="http://www.w3.org/2000/svg">
<path d="M121.713 7.485C123.429 5.77272 123.429 2.99649 121.713 1.28421C119.998 -0.428071 117.217 -0.428071 115.501 1.28421L89.4416 27.2949C89.1728 24.2342 88.8213 21.5254 88.3082 19.1741C87.302 14.5648 85.5161 10.557 81.7711 7.93007C80.3947 6.9644 78.8618 6.18575 77.2693 5.64334C72.477 4.01104 67.7133 5.31578 62.8753 7.66167C58.11 9.97213 52.3285 13.7772 45.119 18.5219L43.5565 19.5502C40.933 21.2767 40.0306 21.8538 39.0972 22.265C38.0979 22.7052 37.0476 23.0197 35.9706 23.2012C34.9646 23.3707 33.893 23.3848 30.7505 23.3848L29.8074 23.3845C22.6798 23.3807 17.7272 23.3781 13.3248 25.4111C9.25523 27.2905 5.33826 30.969 3.21136 34.9091C0.911724 39.169 0.641885 43.624 0.258242 49.9584L0.211912 50.7213C0.0804188 52.8744 0 55.0036 0 57.0001C0 58.9971 0.0804188 61.1263 0.211912 63.2794L0.258242 64.0418C0.641885 70.3767 0.911724 74.8314 3.21136 79.0915C5.33826 83.0313 9.25523 86.7103 13.3248 88.5892C16.9009 90.2408 20.8399 90.5488 26.0128 90.6044L10.0724 106.515C8.35686 108.228 8.35686 111.003 10.0724 112.716C11.7879 114.428 14.5693 114.428 16.2848 112.716L121.713 7.485Z" fill="#EF5DA8" fill-opacity="0.9"/>
<path d="M89.4008 39.8977L38.9937 90.3054C41.3043 93.0812 47.2449 96.8372 49.0733 97.9267C55.1449 101.905 60.1705 105.085 64.4543 106.98C68.7931 108.9 73.1043 109.838 77.4413 108.358C79.0306 107.816 80.5602 107.037 81.9338 106.072C86.061 103.171 87.808 98.589 88.7544 93.3319C89.6849 88.1626 90.0029 81.3128 90.3991 72.7797L90.4149 72.4436C90.7177 65.9264 90.9299 60.2381 90.9299 57.0116C90.9299 56.852 90.931 56.6381 90.9322 56.3768C90.9486 53.0621 91.0023 42.18 89.4008 39.8977Z" fill="#EF5DA8" fill-opacity="0.4"/>
<path d="M114.395 23.7907C116.601 22.795 119.198 23.7768 120.193 25.9837C122.923 32.0341 126 42.1626 126 57.0116C126 69.8209 123.71 79.1221 121.324 85.326C120.133 88.4227 118.924 90.7321 117.978 92.3096C117.505 93.0975 117.098 93.7019 116.793 94.1292C116.64 94.3431 116.513 94.5126 116.415 94.6389C116.366 94.702 116.325 94.754 116.292 94.7955L116.248 94.8499L116.231 94.8709L116.223 94.8797C116.223 94.8797 116.217 94.8879 112.857 92.0881L116.217 94.8879C114.666 96.7478 111.902 96.9991 110.042 95.449C108.191 93.9065 107.934 91.1617 109.459 89.3018L109.479 89.2761L109.538 89.1978C109.57 89.1557 109.61 89.1007 109.658 89.0335C109.832 88.7898 110.11 88.38 110.46 87.7985C111.157 86.6359 112.14 84.7813 113.141 82.1785C115.139 76.9846 117.232 68.7507 117.232 57.0116C117.232 43.4139 114.423 34.5139 112.202 29.5894C111.206 27.3826 112.188 24.7864 114.395 23.7907Z" fill="#EF5DA8" fill-opacity="0.4"/>
<path d="M107.301 44.4303C106.808 42.0597 104.488 40.537 102.117 41.0292C99.7464 41.5213 98.2238 43.842 98.716 46.2124C99.2333 48.7041 99.6974 52.2608 99.6974 57.0116C99.6974 62.797 99.0088 66.8143 98.3735 69.2932C98.0555 70.5341 97.7492 71.395 97.5452 71.9047C97.4429 72.1596 97.3664 72.3273 97.326 72.4115L97.2968 72.4717C96.164 74.5794 96.9315 77.2126 99.0298 78.3787C101.146 79.5541 103.815 78.7919 104.991 76.6754L101.165 74.5502C104.991 76.6754 104.995 76.6678 104.995 76.6678L104.999 76.6596L105.009 76.6415L105.032 76.6L105.088 76.4931C105.13 76.4106 105.182 76.3072 105.242 76.1809C105.362 75.9296 105.514 75.5906 105.686 75.161C106.029 74.3006 106.454 73.0796 106.866 71.4704C107.692 68.2504 108.465 63.5002 108.465 57.0116C108.465 51.6862 107.944 47.531 107.301 44.4303Z" fill="#EF5DA8" fill-opacity="0.4"/>
</svg>
