<svg width="47" height="44" viewBox="0 0 47 44" fill="none" xmlns="http://www.w3.org/2000/svg">
<path d="M4.9639 35.75L10.4194 41.2056C10.9157 41.7019 10.9157 42.5065 10.4194 43.0028C9.92316 43.4991 9.11851 43.4991 8.62222 43.0028L0.997219 35.3778C0.500927 34.8815 0.500927 34.0769 0.997219 33.5806L8.62222 25.9556C9.11851 25.4593 9.92316 25.4593 10.4194 25.9556C10.9157 26.4519 10.9157 27.2565 10.4194 27.7528L4.9639 33.2084H40.0208C42.1264 33.2084 43.8333 31.5014 43.8333 29.3959V21.7709C43.8333 21.069 44.4023 20.5 45.1042 20.5C45.806 20.5 46.375 21.069 46.375 21.7709V29.3959C46.375 32.9052 43.5301 35.75 40.0208 35.75H4.9639ZM42.0361 7.79169L36.5806 2.33613C36.0843 1.83984 36.0843 1.0352 36.5806 0.538905C37.0768 0.0426142 37.8815 0.0426142 38.3778 0.538905L46.0028 8.16391C46.4991 8.6602 46.4991 9.46484 46.0028 9.96113L38.3778 17.5861C37.8815 18.0824 37.0768 18.0824 36.5806 17.5861C36.0843 17.0898 36.0843 16.2852 36.5806 15.7889L42.0361 10.3334H6.97917C4.87358 10.3334 3.16667 12.0403 3.16667 14.1459V21.7709C3.16667 22.4727 2.5977 23.0417 1.89583 23.0417C1.19397 23.0417 0.625 22.4727 0.625 21.7709V14.1459C0.625 10.6365 3.46986 7.79169 6.97917 7.79169H42.0361Z" fill="#F178B6"/>
</svg>
