<svg width="68" height="65" viewBox="0 0 68 65" fill="none" xmlns="http://www.w3.org/2000/svg">
<path d="M20.1653 32.5947V4.47038C20.1653 3.19157 19.9285 1.73278 21.3873 1.0697C22.7324 0.463447 23.8786 1.21179 24.9585 1.9696C38.2676 11.2812 51.5767 20.5739 64.8573 29.9139C67.9075 32.0642 67.8602 33.1062 64.7721 35.2755C51.6809 44.4545 38.5802 53.6145 25.4795 62.7841C25.0816 63.0588 24.6838 63.3429 24.267 63.5798C21.7094 64.9722 20.1938 64.1197 20.1843 61.2021C20.1464 54.0124 20.1748 46.8226 20.1748 39.6234C20.1653 37.2742 20.1653 34.9344 20.1653 32.5947ZM10.4653 32.5757C10.4653 41.3001 10.4748 50.0149 10.4653 58.7392C10.4653 62.3104 8.65606 64.4986 5.71953 64.5554C2.68828 64.6217 0.774805 62.3767 0.774805 58.7013C0.765332 41.2622 0.765332 23.823 0.774805 6.38386C0.774805 2.83161 2.60303 0.61501 5.52061 0.558175C8.53291 0.501339 10.4653 2.7653 10.4653 6.42175V32.5757Z" fill="#FCDDEC"/>
</svg>
