<svg width="189" height="152" viewBox="0 0 189 152" fill="none" xmlns="http://www.w3.org/2000/svg">
<path d="M0.0281808 73.2973C0.38011 55.796 0.556074 47.0454 6.32352 39.5545C7.37619 38.1871 8.92076 36.5626 10.2153 35.461C17.308 29.4254 26.6723 29.4254 45.4008 29.4254C52.092 29.4254 55.4376 29.4254 58.6268 28.5429C59.2896 28.3596 59.9453 28.1481 60.5924 27.9092C63.707 26.759 66.5004 24.7795 72.0872 20.8203C94.1294 5.20007 105.15 -2.60998 114.401 0.782854C116.174 1.43332 117.891 2.3723 119.424 3.53035C127.42 9.57065 128.028 23.6241 129.243 51.731C129.694 62.1386 130 71.0458 130 76C130 80.9543 129.694 89.8615 129.243 100.269C128.028 128.375 127.42 142.43 119.424 148.47C117.891 149.628 116.174 150.567 114.401 151.217C105.15 154.61 94.1294 146.8 72.0872 131.18C66.5004 127.22 63.707 125.241 60.5924 124.091C59.9453 123.852 59.2896 123.641 58.6268 123.457C55.4376 122.575 52.092 122.575 45.4008 122.575C26.6723 122.575 17.308 122.575 10.2153 116.539C8.92076 115.437 7.37619 113.813 6.32352 112.446C0.556074 104.954 0.38011 96.2037 0.0281808 78.7028C0.00970782 77.7841 0 76.8816 0 76C0 75.1184 0.00970782 74.2159 0.0281808 73.2973Z" fill="#EF5DA8" fill-opacity="0.9"/>
<path fill-rule="evenodd" clip-rule="evenodd" d="M165.339 14.6226C168.096 12.1477 172.195 12.549 174.493 15.5189L169.5 20.0002C174.493 15.5189 174.491 15.5158 174.493 15.5189L174.504 15.5318L174.515 15.5461L174.54 15.5798L174.605 15.6664C174.654 15.7326 174.716 15.816 174.788 15.9167C174.933 16.118 175.122 16.3886 175.348 16.73C175.8 17.4126 176.404 18.3776 177.105 19.6362C178.508 22.1544 180.301 25.8427 182.067 30.7873C185.604 40.6934 189 55.5454 189 75.9997C189 96.4546 185.604 111.307 182.067 121.213C180.301 126.157 178.508 129.845 177.105 132.364C176.404 133.622 175.8 134.588 175.348 135.27C175.122 135.611 174.933 135.882 174.788 136.083C174.716 136.184 174.654 136.268 174.605 136.333L174.54 136.42L174.515 136.454L174.504 136.469C174.501 136.471 174.493 136.481 169.5 132L174.493 136.481C172.195 139.451 168.096 139.852 165.339 137.378C162.594 134.914 162.212 130.531 164.474 127.561C164.479 127.554 164.49 127.54 164.504 127.52C164.55 127.456 164.64 127.328 164.769 127.133C165.028 126.743 165.441 126.09 165.958 125.161C166.992 123.304 168.449 120.343 169.933 116.187C172.896 107.893 176 94.745 176 75.9997C176 57.2544 172.896 44.1069 169.933 35.813C168.449 31.6576 166.992 28.6958 165.958 26.8391C165.441 25.9103 165.028 25.2565 164.769 24.8673C164.64 24.6726 164.55 24.544 164.504 24.4802C164.49 24.4595 164.479 24.4457 164.474 24.4385" fill="#EF5DA8" fill-opacity="0.9"/>
<path fill-rule="evenodd" clip-rule="evenodd" d="M149.279 41.8821C152.357 40.0047 156.239 41.2223 157.948 44.6016L152.376 48.0011C157.948 44.6016 157.947 44.5986 157.948 44.6016L157.954 44.6139L157.961 44.627L157.974 44.6553L158.008 44.7218L158.089 44.893C158.151 45.0244 158.227 45.1901 158.314 45.3908C158.487 45.7924 158.708 46.3337 158.958 47.0201C159.459 48.3936 160.075 50.3436 160.675 52.9122C161.876 58.0544 163 65.6397 163 75.9996C163 86.3604 161.876 93.9456 160.675 99.0875C160.075 101.657 159.459 103.607 158.958 104.98C158.708 105.667 158.487 106.207 158.314 106.609C158.227 106.81 158.151 106.975 158.089 107.107L158.008 107.278L157.974 107.345L157.961 107.373L157.954 107.387C157.952 107.389 157.948 107.398 152.376 103.999L157.948 107.398C156.239 110.778 152.357 111.995 149.279 110.117C146.228 108.257 145.113 104.051 146.761 100.686L146.803 100.59C146.861 100.456 146.972 100.188 147.121 99.7804C147.418 98.9666 147.863 97.5921 148.326 95.6104C149.25 91.6526 150.251 85.2382 150.251 75.9996C150.251 66.7619 149.25 60.3474 148.326 56.3894C147.863 54.4082 147.418 53.0333 147.121 52.2194C146.972 51.8121 146.861 51.544 146.803 51.4097L146.761 51.3141C145.113 47.9489 146.228 43.7437 149.279 41.8821Z" fill="#EF5DA8" fill-opacity="0.9"/>
</svg>
