<svg width="149" height="132" viewBox="0 0 149 132" fill="none" xmlns="http://www.w3.org/2000/svg">
<path d="M0.0257396 63.6528C0.347325 48.4544 0.508117 40.8552 5.77871 34.3499C6.74066 33.1625 8.15215 31.7517 9.33512 30.7951C15.8167 25.5536 24.3741 25.5536 41.4891 25.5536C47.6038 25.5536 50.6611 25.5536 53.5756 24.7873C54.1811 24.628 54.7803 24.4444 55.3718 24.2369C58.2178 23.2381 60.7703 21.519 65.8762 18.0807C86.0186 4.51585 96.0902 -2.26656 104.544 0.679846C106.164 1.24472 107.733 2.06016 109.134 3.06583C116.442 8.31135 116.997 20.5156 118.108 44.9243C118.519 53.9624 118.799 61.6976 118.799 66C118.799 70.3023 118.519 78.0375 118.108 87.0754C116.997 111.484 116.442 123.689 109.134 128.934C107.733 129.94 106.164 130.755 104.544 131.32C96.0902 134.266 86.0186 127.484 65.8762 113.919C60.7703 110.481 58.2178 108.762 55.3718 107.763C54.7803 107.555 54.1811 107.372 53.5756 107.213C50.6611 106.446 47.6038 106.446 41.4891 106.446C24.3741 106.446 15.8167 106.446 9.33512 101.205C8.15215 100.248 6.74066 98.8374 5.77871 97.6503C0.508117 91.1443 0.347325 83.5452 0.0257396 68.3471C0.00882705 67.5493 0 66.7656 0 66C0 65.2344 0.00882705 64.4506 0.0257396 63.6528Z" fill="#EF5DA8" fill-opacity="0.9"/>
<path fill-rule="evenodd" clip-rule="evenodd" d="M135.715 36.4315C138.583 34.8043 142.199 35.8596 143.792 38.7886L138.6 41.735C143.792 38.7886 143.792 38.7886 143.792 38.7886L143.798 38.7993L143.804 38.8106L143.817 38.8351L143.848 38.8927L143.924 39.0411C143.981 39.155 144.052 39.2986 144.133 39.4726C144.296 39.8207 144.501 40.2899 144.734 40.8848C145.2 42.0752 145.775 43.7653 146.333 45.9917C147.453 50.4487 148.5 57.0231 148.5 66.0024C148.5 74.9825 147.453 81.5569 146.333 86.0136C145.775 88.2403 145.2 89.9307 144.734 91.1212C144.501 91.716 144.296 92.1846 144.133 92.5327C144.052 92.7068 143.981 92.8504 143.924 92.9642L143.848 93.1127L143.817 93.1705L143.804 93.1952L143.798 93.2068C143.798 93.2068 143.792 93.2167 138.6 90.2706L143.792 93.2167C142.199 96.1462 138.583 97.2014 135.715 95.5737C132.872 93.9608 131.832 90.316 133.368 87.3988L133.407 87.3163C133.462 87.1999 133.566 86.9673 133.704 86.6142C133.98 85.9088 134.395 84.7175 134.826 82.9999C135.688 79.5695 136.62 74.0098 136.62 66.0024C136.62 57.9958 135.688 52.4361 134.826 49.0055C134.395 47.2883 133.98 46.0966 133.704 45.3912C133.566 45.0382 133.462 44.8058 133.407 44.6894L133.368 44.6066C131.832 41.6898 132.872 38.045 135.715 36.4315Z" fill="#EF5DA8" fill-opacity="0.9"/>
</svg>
