<svg width="256" height="256" viewBox="0 0 256 256" fill="none" xmlns="http://www.w3.org/2000/svg">
<g clip-path="url(#clip0_2363_2)">
<path d="M0 208.128C0 221.44 4.69333 232.704 14.08 241.92C23.4667 251.136 34.816 255.829 48.128 256H208.128C221.269 256 232.533 251.307 241.92 241.92C251.307 232.533 256 221.269 256 208.128V48.128C256 34.816 251.307 23.4667 241.92 14.08C232.533 4.69333 221.269 0 208.128 0H48.128C34.816 0 23.4667 4.69333 14.08 14.08C4.69333 23.4667 0 34.816 0 48.128L0 208.128ZM32 208.128V48.128C32 43.6907 33.536 39.936 36.608 36.864C39.68 33.792 43.52 32.1707 48.128 32H208.128C212.395 32 216.149 33.6213 219.392 36.864C222.635 40.1067 224.171 43.8613 224 48.128V208.128C224 212.565 222.464 216.32 219.392 219.392C216.32 222.464 212.565 224 208.128 224H48.128C43.6907 224 39.8507 222.464 36.608 219.392C33.3653 216.32 31.8293 212.565 32 208.128ZM78.08 162.048C78.08 166.485 79.616 170.24 82.688 173.312C85.76 176.384 89.6 178.005 94.208 178.176C98.816 178.347 102.571 176.725 105.472 173.312L128 150.784L150.528 173.312C153.6 176.555 157.355 178.176 161.792 178.176C166.229 178.176 170.069 176.555 173.312 173.312C176.555 170.069 178.091 166.315 177.92 162.048C177.749 157.781 176.213 154.027 173.312 150.784L150.528 128L173.312 105.472C176.384 102.4 177.92 98.6453 177.92 94.208C177.92 89.7707 176.384 86.016 173.312 82.944C170.24 79.872 166.4 78.2507 161.792 78.08C157.184 77.9093 153.429 79.5307 150.528 82.944L128 105.472L105.472 82.944C102.4 79.7013 98.6453 78.08 94.208 78.08C89.7707 78.08 85.9307 79.7013 82.688 82.944C79.4453 86.1867 77.9093 89.9413 78.08 94.208C78.2507 98.4747 79.7867 102.229 82.688 105.472L105.472 128L82.688 150.784C79.616 153.856 78.08 157.611 78.08 162.048Z" fill="#EF5DA8"/>
</g>
<defs>
<clipPath id="clip0_2363_2">
<rect width="256" height="256" fill="white"/>
</clipPath>
</defs>
</svg>
