<svg width="229" height="229" viewBox="0 0 229 229" fill="none" xmlns="http://www.w3.org/2000/svg">
<path d="M19.0834 57.25C19.0834 39.2581 19.0834 30.2621 24.6728 24.6728C30.2621 19.0834 39.2581 19.0834 57.25 19.0834C75.242 19.0834 84.238 19.0834 89.8273 24.6728C95.4167 30.2621 95.4167 39.2581 95.4167 57.25V171.75C95.4167 189.742 95.4167 198.738 89.8273 204.327C84.238 209.917 75.242 209.917 57.25 209.917C39.2581 209.917 30.2621 209.917 24.6728 204.327C19.0834 198.738 19.0834 189.742 19.0834 171.75V57.25Z" fill="#EF5DA8"/>
<path d="M133.583 57.25C133.583 39.2581 133.583 30.2621 139.173 24.6728C144.762 19.0834 153.758 19.0834 171.75 19.0834C189.742 19.0834 198.738 19.0834 204.327 24.6728C209.917 30.2621 209.917 39.2581 209.917 57.25V171.75C209.917 189.742 209.917 198.738 204.327 204.327C198.738 209.917 189.742 209.917 171.75 209.917C153.758 209.917 144.762 209.917 139.173 204.327C133.583 198.738 133.583 189.742 133.583 171.75V57.25Z" fill="#EF5DA8" fill-opacity="0.5"/>
</svg>
